<svg xmlns="http://www.w3.org/2000/svg" viewBox="0 0 120 120">
  <!-- 背景円 -->
  <circle cx="60" cy="60" r="55" fill="#E6F3FF" stroke="#B8D4F1" stroke-width="3"/>
  
  <!-- 耳（垂れ耳） -->
  <path d="M25,45 Q15,65 25,85 Q35,75 40,60 Q38,50 35,45 Z" fill="#696969"/>
  <path d="M95,45 Q85,50 83,60 Q88,75 98,85 Q108,65 98,45 Z" fill="#696969"/>
  
  <!-- 顔 -->
  <circle cx="60" cy="60" r="35" fill="#C0C0C0"/>
  
  <!-- 目（にっこり） -->
  <path d="M45,55 Q48,50 51,55" fill="none" stroke="#000" stroke-width="3" stroke-linecap="round"/>
  <path d="M69,55 Q72,50 75,55" fill="none" stroke="#000" stroke-width="3" stroke-linecap="round"/>
  
  <!-- 鼻 -->
  <ellipse cx="60" cy="65" rx="6" ry="5" fill="#000"/>
  
  <!-- 口（笑顔） -->
  <path d="M60,68 Q45,78 35,70" fill="none" stroke="#000" stroke-width="2.5" stroke-linecap="round"/>
  <path d="M60,68 Q75,78 85,70" fill="none" stroke="#000" stroke-width="2.5" stroke-linecap="round"/>
  
  <!-- ほっぺ -->
  <circle cx="30" cy="65" r="7" fill="#FFB6C1" opacity="0.7"/>
  <circle cx="90" cy="65" r="7" fill="#FFB6C1" opacity="0.7"/>
  
  <!-- 星 -->
  <text x="20" y="30" font-size="18" fill="#FFD700">★</text>
  <text x="85" y="25" font-size="20" fill="#FFD700">☆</text>
</svg>